<svg width="145" height="48" fill="none" xmlns="http://www.w3.org/2000/svg"><path d="M7.763 26.05v7.676c0 .843-.058 1.658-.175 2.5-.203 1.396-1.366 2.385-2.79 2.443-1.542.058-2.763-.756-3.112-2.151a5.562 5.562 0 01-.174-1.396c0-7.007-.03-14.014 0-21.02 0-2.24 1.192-3.577 3.082-3.577 1.628 0 2.82 1.018 3.053 2.646.32 2.471.087 4.942.145 7.414v.872c.581-.262.843-.727 1.163-1.076 2.239-2.53 4.477-5.059 6.716-7.56.465-.522.93-1.017 1.454-1.453 1.308-1.105 2.82-1.134 3.983-.145 1.163.988 1.396 2.616.552 4.041-.32.582-.785 1.047-1.25 1.512-2.035 2.064-4.041 4.158-6.105 6.193-.495.494-.495.785 0 1.28 2.762 2.878 5.466 5.814 8.199 8.721.697.756 1.25 1.57 1.279 2.675.029 2.442-2.152 3.838-4.361 2.733-.582-.29-1.076-.727-1.512-1.22-3.082-3.403-6.135-6.746-9.188-10.09-.232-.29-.494-.523-.96-1.017zm54.777-2.267a813.47 813.47 0 015.087-4.768c.465-.436.93-.93 1.454-1.309 1.366-1.017 2.82-.872 3.896.32 1.047 1.163 1.047 2.733-.087 3.925-1.25 1.309-2.559 2.559-3.896 3.809-.524.494-.524.785-.088 1.308 1.541 1.832 3.024 3.722 4.507 5.612.436.552.843 1.105 1.163 1.715.64 1.221.378 2.588-.64 3.46-1.105.96-2.442 1.047-3.605.262-.494-.32-.872-.756-1.221-1.221-2.093-2.733-4.216-5.437-6.542-8.403v5.03c0 .93.058 1.89-.174 2.82-.32 1.367-1.541 2.355-2.908 2.326-1.395-.03-2.558-1.018-2.82-2.413a9.768 9.768 0 01-.174-1.832v-22.01c0-.552.058-1.075.145-1.627.233-1.57 1.367-2.588 2.878-2.588 1.454 0 2.588.96 2.879 2.442.116.61.174 1.221.174 1.832-.029 3.78-.029 7.617-.029 11.31zm-28.465 5.466a966.503 966.503 0 012.937-8.664c.203-.582.407-1.163.669-1.716.756-1.57 2.238-2.122 3.808-1.54 1.483.552 2.268 2.005 1.861 3.576-.494 1.947-1.367 3.721-2.093 5.582a1190.123 1190.123 0 01-3.635 9.1c-.64 1.57-1.453 3.024-3.46 2.995-1.947-.03-2.965-1.28-3.605-2.966-1.134-2.878-2.297-5.727-3.401-8.577-.756-1.919-1.57-3.809-2.24-5.786-.697-2.064.32-3.692 2.356-4.099 1.483-.29 2.733.465 3.373 2.122.64 1.687 1.192 3.431 1.773 5.147a150.838 150.838 0 011.657 4.826z" fill="#047EEF"></path><path d="M46.432 27.94c0-2.384-.03-4.797.029-7.18.029-1.28.262-2.501 1.6-3.228 1.656-.872 3.633-.116 4.157 1.686.145.524.29 1.047.29 1.6 0 4.71 0 9.448-.029 14.159 0 1.25-.32 2.442-1.511 3.14-2.123 1.22-4.39-.175-4.507-2.791-.058-1.222-.03-2.472-.03-3.693v-3.692z" fill="#F39301"></path><path d="M52.974 11.659c0 2.006-1.425 3.372-3.431 3.489-2.152.116-3.547-1.948-3.547-3.46 0-1.86 1.628-3.547 3.518-3.547 1.948-.03 3.43 1.512 3.46 3.518z" fill="#F39303"></path><path d="M95.83 20.178c0-1.25-.495-2.268-1.745-2.762-1.163-.466-2.268-.32-3.256.523a2.351 2.351 0 00-.814 1.715v9.595s0 3.692-3.431 3.692-3.431-3.692-3.431-3.692v-9.595a2.351 2.351 0 00-.814-1.715c-.96-.843-2.093-.989-3.257-.523-1.22.494-1.715 1.511-1.744 2.762-.03 3.692-.058 7.414 0 11.106.03 1.715.698 3.227 1.948 4.478 2.064 2.093 4.565 2.965 7.269 2.936 2.703.03 5.175-.843 7.268-2.936 1.25-1.25 1.92-2.763 1.948-4.478.087-3.692.058-7.385.058-11.106z" fill="#047EEF"></path><path d="M133.626 33.232c-1.017.262-1.773-.087-2.471-.669-.931-.756-1.832-1.54-2.733-2.326-1.279-1.046-2.646-1.918-4.39-1.86-.437 0-.785.058-1.076-.465-.291-.582.058-.785.32-1.105 1.512-1.803 2.558-3.81 2.5-6.193-.087-2.85-2.181-4.1-4.71-2.908-.32.146-.669.698-.989.262-.261-.349.059-.814.349-1.163.117-.145.233-.29.32-.436 1.512-1.977 1.57-4.041.262-6.164-.872-1.395-1.919-2.646-2.995-3.867-.232-.261-.407-.436-.145-.901.872-1.512.698-2.646-.378-3.489-1.192-.93-2.675-.843-3.838.29-.349.35-.698.408-1.134.379-1.715-.117-3.431.029-5.03.668-1.279.524-2.355.67-3.401-.348-.175-.175-.437-.233-.698-.32-1.599-.64-3.169-.175-4.245 1.22-1.076 1.396-1.047 2.821.058 4.275.204.261.407.407.116.785-5.204 6.134-6.163 15.73-4.913 21.37 1.715 7.762 7.356 10.815 9.565 11.95 1.832.93 3.78 1.627 5.699 2.383 4.39 1.716 9.013 2.18 13.694 1.774 3.721-.32 4.826-1.512 5.495-5.408.029-.233.029-.378.32-.436 3.14-.756 4.303-3.431 5.582-5.902.465-.902-.174-1.658-1.134-1.396zm-29.162 6.833c-3.052-1.512-5.378-3.547-6.92-6.542 2.356 2.064 5.089 2.936 8.258 2.82-.814 1.134-1.454 2.21-1.338 3.722zm-3.343-17.038c-1.57-.814-2.937-1.832-4.216-3.053-.349-.32-.523-.61-.407-1.134.756-3.198 1.919-6.222 3.925-8.867.262-.35.523-.698 1.047-.553.698.175 1.192-.116 1.512-.756 1.948-3.75 5.349-4.535 9.158-4.535 1.018 0 1.948.32 2.675 1.017 1.396 1.338 2.733 2.704 4.332 4.245-.756-.174-1.25-.552-1.657-.145-.436.407-.233.96-.058 1.424.465 1.25 1.105 2.384 2.384 2.966.494.232.378.436.291.843-.088.436-.291.465-.669.407-.698-.145-1.367.03-2.006.349-.436.233-.814.552-.785 1.076.029.581.581.698 1.017.843.291.087.64.087 1.163.116-1.628 2.006-3.634.785-5.466.843.233.902 1.105.814 1.687 1.25-4.478 1.541-8.781 2.53-11.863-2.674-.407 2.704 2.762 4.768 7.821 5.378-2.646 2.5-6.251 2.82-9.885.96zm23.289 14.072c-3.228.32-6.339-.116-9.333-1.425a148.16 148.16 0 00-2.588-1.075c1.715-.902 3.256-1.977 4.565-3.315a16.488 16.488 0 003.256-4.884c1.105 3.052 2.907 5.35 5.03 7.414.203.203.349.465.465.727.756 1.57.32 2.384-1.395 2.558z" fill="#0A0104"></path><path d="M126.852 5.844l2.704 2.035.698 3.722 1.802-1.541 3.315 2.617c2.5-3.664 5.466-7.792 8.111-11.63-5.611 1.599-16.63 4.797-16.63 4.797zm7.821 5.466l-3.547-2.5-.785 2.267-.117-2.907 11.805-6.222-7.356 9.362z" fill="#090204"></path><path d="M114.03 11.63c-.087 1.28-.436 2.5-1.337 3.518-.785.901-1.89 1.076-2.821.494-.843-.523-1.017-1.396-.523-2.588.465-1.133 1.25-2.035 2.239-2.733.523-.378 1.075-.872 1.773-.494.64.378.64 1.105.669 1.803z" fill="#0A0205"></path></svg>